<?xml version="1.0" encoding="utf-8"?>
<!-- Generator: Adobe Illustrator 22.1.0, SVG Export Plug-In . SVG Version: 6.00 Build 0)  -->
<svg version="1.1" id="Lager_1" xmlns="http://www.w3.org/2000/svg" xmlns:xlink="http://www.w3.org/1999/xlink" x="0px" y="0px"
	 viewBox="0 0 1366 768" style="enable-background:new 0 0 1366 768;" xml:space="preserve">
<style type="text/css">
	.st0{fill:#FFFFFF;}
</style>
<g>
	<circle cx="614.5" cy="364.5" r="74"/>
	<path d="M614.5,297c37.2,0,67.5,30.3,67.5,67.5S651.7,432,614.5,432S547,401.7,547,364.5S577.3,297,614.5,297 M614.5,284
		c-44.5,0-80.5,36-80.5,80.5s36,80.5,80.5,80.5s80.5-36,80.5-80.5S659,284,614.5,284L614.5,284z"/>
</g>
<g>
	<rect x="470.5" y="362.5" class="st0" width="307" height="110"/>
	<path class="st0" d="M771,369v97H477v-97H771 M784,356H464v123h320V356L784,356z"/>
</g>
<g>
	<circle cx="613" cy="231" r="50.5"/>
	<path d="M613,187c24.3,0,44,19.7,44,44s-19.7,44-44,44s-44-19.7-44-44S588.7,187,613,187 M613,174c-31.5,0-57,25.5-57,57
		s25.5,57,57,57s57-25.5,57-57S644.5,174,613,174L613,174z"/>
</g>
</svg>
