<?xml version="1.0" encoding="utf-8"?>
<!-- Generator: Adobe Illustrator 22.1.0, SVG Export Plug-In . SVG Version: 6.00 Build 0)  -->
<svg version="1.1" id="Lager_1" xmlns="http://www.w3.org/2000/svg" xmlns:xlink="http://www.w3.org/1999/xlink" x="0px" y="0px"
	 viewBox="0 0 197 217" style="enable-background:new 0 0 197 217;" xml:space="preserve">
<style type="text/css">
	.st0{fill:none;stroke:#000000;stroke-width:6;stroke-miterlimit:10;}
	.st1{fill-rule:evenodd;clip-rule:evenodd;stroke:#000000;stroke-width:6;stroke-miterlimit:10;}
	.st2{fill-rule:evenodd;clip-rule:evenodd;fill:#FFFFFF;stroke:#000000;stroke-width:6;stroke-miterlimit:10;}
	.st3{fill-rule:evenodd;clip-rule:evenodd;fill:none;stroke:#000000;stroke-width:8;stroke-miterlimit:10;}
</style>
<g>
	<path class="st0" d="M56.5,212.5"/>
</g>
<path class="st1" d="M27.3,52L20,52.1V47h85v164H72.9c-6.3,0-11.7-4.4-12.9-10.6L31.5,55.8C31,53.6,29.3,52,27.3,52z"/>
<path class="st2" d="M78.2,199.8l-4,0.2c-3.6,0.2-6.7-2.5-6.9-6.1L60.7,78.1c-0.2-3.6,2.5-6.7,6.1-6.9l4-0.2
	c3.6-0.2,6.7,2.5,6.9,6.1l6.6,115.8C84.5,196.5,81.7,199.6,78.2,199.8z"/>
<path class="st1" d="M176.8,52l4.6,0c1.4,0,2.6-1.1,2.6-2.5v0c0-1.4-1.1-2.5-2.5-2.5h-78.9c-1.4,0-2.5,1.1-2.5,2.5v158.9
	c0,1.4,1.1,2.5,2.5,2.5h32.8c4.1,0,7.6-2.9,8.4-6.9l28.9-148.3C173.1,53.6,174.8,52,176.8,52z"/>
<path class="st2" d="M106.5,201h-4c-3.6,0-6.5-2.9-6.5-6.5v-116c0-3.6,2.9-6.5,6.5-6.5h4c3.6,0,6.5,2.9,6.5,6.5v116
	C113,198.1,110.1,201,106.5,201z"/>
<path class="st2" d="M134.5,201l-4-0.2c-3.6-0.2-6.3-3.3-6.1-6.9l7.2-115.8c0.2-3.6,3.3-6.3,6.9-6.1l4,0.2c3.6,0.2,6.3,3.3,6.1,6.9
	l-7.2,115.8C141.2,198.5,138.1,201.2,134.5,201z"/>
<polygon class="st1" points="15,38 19.4,29.1 104.3,29.1 104.3,38 "/>
<polygon class="st1" points="190,38 185.6,29.1 100.8,29.1 100.8,38 "/>
<path class="st3" d="M69.7,26.8v-6.9c0-3.2,2.7-5.7,6.1-5.7h42.9h15.8c2.4,0,4.4,1.8,4.4,4.1v0v10.2"/>
</svg>
